<?xml version="1.0" standalone="no"?>
<!DOCTYPE svg PUBLIC "-//W3C//DTD SVG 20010904//EN"
 "http://www.w3.org/TR/2001/REC-SVG-20010904/DTD/svg10.dtd">
<svg version="1.0" xmlns="http://www.w3.org/2000/svg"
 width="200.000000pt" height="200.000000pt" viewBox="0 0 200.000000 200.000000"
 preserveAspectRatio="xMidYMid meet">

<g transform="translate(0.000000,200.000000) scale(0.100000,-0.100000)"
fill="#ccd6f6" stroke="none">
<path d="M905 1807 c-109 -37 -186 -103 -232 -202 l-28 -60 0 -265 0 -265 28
-61 c36 -77 104 -145 182 -181 51 -24 73 -28 145 -28 72 0 94 4 145 28 78 36
146 104 182 181 l28 61 0 265 0 265 -28 61 c-57 123 -177 204 -311 211 -41 1
-88 -3 -111 -10z m215 -97 c61 -30 97 -65 128 -125 l27 -50 0 -255 0 -255 -27
-50 c-53 -101 -134 -150 -248 -150 -116 1 -196 50 -251 155 -23 43 -24 56 -27
278 -4 284 3 318 83 397 85 86 211 108 315 55z"/>
<path d="M971 1586 c-8 -9 -11 -43 -9 -92 2 -60 7 -79 21 -88 12 -8 22 -8 35
0 13 9 18 28 20 88 3 81 -6 106 -38 106 -10 0 -23 -6 -29 -14z"/>
<path d="M812 628 c-7 -7 -12 -19 -12 -28 0 -20 180 -200 200 -200 20 0 200
181 200 201 0 19 -20 39 -39 39 -9 0 -48 -33 -88 -72 l-73 -72 -73 72 c-72 72
-93 82 -115 60z"/>
<path d="M812 408 c-7 -7 -12 -19 -12 -28 0 -20 180 -200 200 -200 20 0 200
181 200 201 0 19 -20 39 -39 39 -9 0 -48 -33 -88 -72 l-73 -72 -73 72 c-72 72
-93 82 -115 60z"/>
</g>
</svg>
